<?xml version="1.0" encoding="utf-8"?>
<!-- Generator: Adobe Illustrator 19.2.1, SVG Export Plug-In . SVG Version: 6.00 Build 0)  -->
<svg version="1.1" id="layer" xmlns="http://www.w3.org/2000/svg" xmlns:xlink="http://www.w3.org/1999/xlink" x="0px" y="0px"
	 viewBox="0 0 652 652" style="enable-background:new 0 0 652 652;" xml:space="preserve">
<style type="text/css">
	.st0{fill:#9a0031;}
	.st1{fill:#e2e2e2;}
</style>
<g id="line" transform="translate(792.000000, 406.000000)">
	<polygon id="Fill-10" class="st0" points="-772,-16.5 -252.6,-16.5 -252.6,-30.1 -772,-30.1 	"/>
	<polygon id="Fill-11" class="st0" points="-216.6,-16.5 -172,-16.5 -172,-30.1 -216.6,-30.1 	"/>
</g>
<g id="text" transform="translate(792.000000, 406.000000)">
	<path class="st1" d="M-670.8-50.7h18.6v-70h-18.6V-50.7z M-672.6-140.9c0-3.2,1-5.8,3.2-8c2-2,4.8-3,8-3c3.4,0,6,1,8,3
		s3.2,4.6,3.2,8c0,3.2-1,5.8-3.2,8c-2,2-4.8,3-8,3s-5.8-1-8-3S-672.6-137.7-672.6-140.9z"/>
	<path class="st1" d="M-609.4-120.9h19v14h-19v33.6c0,3,0.8,5.4,2.6,7.2c1.8,1.8,4,2.8,7,2.8c2.6,0,5.6-0.4,8.8-1.2l2.4,13.8
		c-5.4,1.4-10.6,2.2-15.6,2.2c-3.4,0-6.6-0.6-9.4-1.6s-5.2-2.6-7.4-4.6c-2-2-3.6-4.4-4.8-7.2c-1.2-2.8-1.6-5.8-1.6-9.2v-35.4h-12.8
		v-14h12.8v-20.6h17.8v20.2H-609.4z"/>
	<path class="st1" d="M-579.4-101.5c0-3,0.6-6,2-8.6s3.2-4.8,5.4-6.8c2.4-1.8,5.2-3.4,8.4-4.4s7-1.6,10.8-1.6c4,0,8.2,0.4,12.4,1.2
		c4.2,0.8,8.6,2,13,3.6l-4,13.2c-3.4-1.4-6.8-2.4-10.2-3.2c-3.4-0.8-6.6-1.2-9.6-1.2c-3.2,0-5.8,0.6-7.8,2s-2.8,3.2-2.8,5.6
		c0,2.2,1,3.8,2.8,4.8s4,2,6.8,2.8s5.6,1.6,8.8,2.2c3.2,0.8,6.2,2,8.8,3.6c2.8,1.6,5,3.8,6.8,6.4c1.8,2.8,2.8,6.4,2.8,10.8
		c0,3.2-0.6,6-2,8.8c-1.4,2.6-3.2,5-5.6,7s-5.2,3.4-8.8,4.6c-3.4,1-7.2,1.6-11.2,1.6c-8.6,0-17.8-1.8-27.4-5.6l3.8-13
		c8.2,3.4,15.6,5,22.2,5c3.4,0,6.2-0.8,8.2-2.2s3-3.4,3-6c0-2.2-1-3.8-2.8-5s-4-2.2-6.8-3s-5.6-1.6-8.8-2.4c-3.2-0.8-6-2-8.8-3.6
		s-5-3.6-6.8-6.2C-578.6-93.5-579.4-97.1-579.4-101.5"/>
	<path class="st1" d="M-487.6-120.9h19v14h-19v33.6c0,3,0.8,5.4,2.6,7.2c1.8,1.8,4,2.8,7,2.8c2.6,0,5.6-0.4,8.8-1.2l2.4,13.8
		c-5.4,1.4-10.6,2.2-15.6,2.2c-3.4,0-6.6-0.6-9.4-1.6s-5.2-2.6-7.4-4.6s-3.6-4.4-4.8-7.2c-1.2-2.8-1.6-5.8-1.6-9.2v-35.4h-12.8v-14
		h12.8v-20.6h17.8v20.2H-487.6z"/>
	<path class="st1" d="M-439.2-72.1c0,2.8,1.2,5.2,3.4,7.2c2.4,2,5.2,3,8.6,3c4.8,0,8.6-1.6,11.6-4.6s4.4-7,4.4-11.8v-4.2
		c-3.4-1-7.2-1.4-11.4-1.4c-5.2,0-9.2,1-12.2,3.2C-437.6-78.7-439.2-75.7-439.2-72.1 M-456.6-71.1c0-7.4,2.8-13.2,8.4-17.2
		s13.4-6,23.6-6c2.2,0,4.4,0.2,6.6,0.4s4.6,0.6,6.8,1v-3.8c0-3.6-1.2-6.6-3.8-8.8c-2.6-2.2-6-3.4-10.4-3.4c-7,0-14.6,1.6-22.8,5
		l-4.6-12.8c10-4,19.8-5.8,29.4-5.8c4.4,0,8.2,0.6,11.8,2c3.6,1.2,6.6,3,9.2,5.4c2.6,2.2,4.6,5,6,8.2s2.2,6.8,2.2,10.6v28.6
		c0,1.6,0.4,2.8,1.2,3.6c0.8,1,2,1.4,3.6,1.4c0.8,0,1.4,0,2.2-0.2c0.6,0,1.2-0.2,1.4-0.2l1.2,13.4c-1.6,0.2-3,0.6-4.6,0.8
		s-3.2,0.2-5,0.2c-3.6,0-6.6-0.8-9.2-2.6c-2.6-1.6-4.4-4-5.6-7c-3,3-6.6,5.4-10.4,7c-4,1.6-8,2.4-12.4,2.4c-3.6,0-7-0.6-10-1.6
		s-5.6-2.6-7.8-4.6c-2.2-2-3.8-4.2-5-7C-456-64.9-456.6-67.9-456.6-71.1"/>
	<path class="st1" d="M-374.2-121.1h14.4l2.2,9.6c2.8-3.6,6-6.4,10-8.4s8.2-3,12.8-3c5.2,0,9.6,1.2,13.6,3.4
		c3.8,2.2,6.8,5.4,8.8,9.4c3.2-4.2,7-7.4,11.2-9.6c4.2-2.2,8.8-3.2,14-3.2c3.8,0,7.2,0.6,10.4,1.8c3.2,1.2,6,3,8.2,5.4
		c2.4,2.2,4.2,5,5.4,8.2c1.2,3.2,2,6.6,2,10.4v46.4h-18.2v-43.4c0-4-1.2-7.2-3.8-9.8c-2.6-2.4-5.8-3.8-9.8-3.8
		c-4.6,0-8.4,1.6-11.4,4.8s-4.4,7.2-4.4,12.4v39.8H-327v-43.4c0-4-1.2-7.2-3.6-9.8c-2.4-2.4-5.6-3.8-9.6-3.8
		c-4.8,0-8.6,1.6-11.6,4.8s-4.4,7.2-4.4,12.4v39.8h-18.2v-70.4H-374.2z"/>
	<path class="st1" d="M-192-86.1c0-3.2-0.4-6.2-1.4-9c-0.8-2.8-2.2-5.2-3.8-7c-1.6-2-3.4-3.4-5.6-4.6s-4.6-1.6-7.2-1.6
		c-4.8,0-8.6,1.6-11.8,5c-3,3.2-4.6,7.4-4.6,12.6v9.4c0,2.6,0.4,5,1.2,7c0.8,2.2,2,4,3.4,5.6s3.2,2.8,5.2,3.6s4.2,1.2,6.6,1.2
		c2.6,0,5-0.6,7.2-1.6s4-2.6,5.6-4.6s2.8-4.4,3.8-7S-192-82.9-192-86.1z M-244-121.1h14.4l2.2,9c2.6-3.4,5.6-6,9.4-8
		c3.8-1.8,8-2.8,12.6-2.8s8.8,1,12.8,2.8c3.8,1.8,7.2,4.4,10,7.6c2.8,3.2,5,7,6.6,11.6c1.6,4.4,2.4,9.4,2.4,14.8
		c0,5.4-0.8,10.4-2.4,14.8c-1.6,4.4-3.8,8.4-6.6,11.6c-2.8,3.2-6.2,5.8-10,7.6s-8.2,2.8-12.8,2.8c-4.2,0-8.2-0.8-11.6-2.4
		c-3.6-1.6-6.6-4-9-7.2v42.6h-18V-121.1z"/>
	<path class="st1" d="M-710.8-68.7c-2.8,2.8-6.6,4-11.4,4h-22.4v-29h22.4c4.6,0,8.4,1.4,11.4,4c2.8,2.6,4.2,6.2,4.2,10.4
		C-706.4-74.9-707.8-71.3-710.8-68.7z M-744.6-132.9h20.6c4.2,0,7.6,1.2,10.4,3.8c2.8,2.4,4,5.8,4,9.8s-1.4,7.2-4,9.6
		c-2.8,2.4-6.2,3.6-10.4,3.6h-20.6V-132.9z M-692.4-91.9c-3-4.2-7-7.2-12-9c4-1.8,7-4.4,9.4-8s3.6-7.8,3.6-12.6
		c0-3.8-0.8-7.2-2.2-10.2c-1.4-3.2-3.6-5.8-6.2-8s-5.8-4-9.4-5.2s-7.6-1.8-12-1.8H-772v12.8l0,0c7.8,0,14,6.4,14,14.2
		s-6.2,14.2-14,14.2v11.6l0,0c7.8,0,14,6.4,14,14.2v2.2c0,7.8-6.2,14.2-14,14.2l0,0v12.8h53c4.6,0,8.6-0.6,12.4-2
		c3.8-1.2,7-3,9.8-5.4s5-5.2,6.4-8.4c1.6-3.2,2.4-6.8,2.4-10.8C-688-82.9-689.4-87.7-692.4-91.9z"/>
</g>
</svg>
